<?xml version="1.0" standalone="no"?>
<!DOCTYPE svg PUBLIC "-//W3C//DTD SVG 20010904//EN"
 "http://www.w3.org/TR/2001/REC-SVG-20010904/DTD/svg10.dtd">
<svg version="1.0" xmlns="http://www.w3.org/2000/svg"
 width="377.000000pt" height="377.000000pt" viewBox="0 0 377.000000 377.000000"
 preserveAspectRatio="xMidYMid meet">
<metadata>
Created by potrace 1.14, written by Peter Selinger 2001-2017
</metadata>
<g transform="translate(0.000000,377.000000) scale(0.100000,-0.100000)"
fill="#000000" stroke="none">
<path d="M825 3749 c-202 -42 -355 -122 -506 -266 -124 -119 -238 -303 -274
-443 -3 -8 -12 -44 -21 -80 -26 -100 -24 -348 3 -460 55 -221 193 -442 351
-562 31 -23 59 -45 62 -48 11 -11 88 -57 130 -77 224 -108 440 -132 689 -79
169 36 368 152 498 289 442 468 360 1214 -174 1575 -104 71 -220 121 -347 149
-107 24 -302 25 -411 2z"/>
<path d="M2798 2934 c-2 -1 -28 -5 -60 -8 -191 -22 -384 -120 -528 -268 -130
-134 -208 -285 -257 -493 -24 -105 -14 -319 21 -448 93 -341 380 -607 724
-671 67 -12 259 -14 307 -3 254 60 437 175 575 362 72 98 148 260 165 352 2
16 9 50 14 78 10 52 8 270 -3 320 -32 145 -87 280 -158 382 -44 64 -159 184
-210 219 -24 16 -45 31 -48 34 -3 3 -36 22 -75 42 -84 43 -211 84 -290 93 -61
8 -173 13 -177 9z"/>
<path d="M1770 1300 c-147 -31 -255 -92 -353 -200 -190 -210 -224 -540 -80
-778 76 -125 164 -206 286 -263 216 -100 473 -67 660 85 150 123 238 311 238
511 0 185 -64 338 -196 470 -111 111 -236 171 -375 181 -36 3 -72 6 -80 8 -9
2 -54 -5 -100 -14z"/>
<path d="M642 881 c-101 -26 -197 -108 -246 -210 -28 -60 -31 -75 -31 -166 0
-91 3 -106 31 -165 28 -59 85 -126 140 -165 37 -25 143 -55 197 -55 138 0 267
86 331 220 28 59 31 74 31 165 0 91 -3 106 -31 165 -46 98 -148 188 -234 208
-38 8 -158 10 -188 3z"/>
</g>
</svg>
